<svg xmlns="http://www.w3.org/2000/svg" width="15" height="22" viewBox="0 0 15 22">
  <defs>
    <style>
      .cls-1 {
      }
    </style>
  </defs>
  <path id="pin" class="cls-1" d="M433.646,8180.48a6.332,6.332,0,0,0-.352-0.88A7.442,7.442,0,0,0,419,8181.82v0.94c0,0.04.013,0.39,0.032,0.57,0.272,2.19,1.982,4.52,3.259,6.71,1.374,2.34,2.8,4.65,4.213,6.96,0.871-1.51,1.739-3.03,2.591-4.5,0.232-.43.5-0.86,0.733-1.27,0.155-.27.451-0.55,0.586-0.8,1.374-2.54,3.586-5.11,3.586-7.63v-1.03A7.436,7.436,0,0,0,433.646,8180.48Zm-7.187,4.71a2.665,2.665,0,0,1-2.549-1.84,2.58,2.58,0,0,1-.071-0.68v-0.61a2.528,2.528,0,0,1,2.7-2.5,2.753,2.753,0,0,1,2.746,2.81A2.826,2.826,0,0,1,426.459,8185.19Z" transform="translate(-419 -8175)"/>
</svg>
