<svg xmlns="http://www.w3.org/2000/svg" width="14.16" height="19.32" viewBox="0 0 14.16 19.32">
  <path id="telephone" class="cls-1" d="M1291.06,8176.25c-0.8.6-3.06,3.81,1.17,11.08,4.45,7.67,8.68,7.35,9.53,6.83l-3-5.03c-0.71.42-1.31-.26-2.41-1.74-0.02-.02-2.15-3.57-2.16-3.62-0.44-.96-0.8-1.93-0.05-2.37Zm12.53,16.85a0.638,0.638,0,0,0,.23-0.89h0l-2.34-3.92a0.665,0.665,0,0,0-.9-0.23l-1.43.84,3.01,5.04s1.43-.83,1.43-0.84h0Zm-7.63-12.77a0.65,0.65,0,0,0,.24-0.89h0s-2.41-4.03-2.42-4.03a0.651,0.651,0,0,0-.89-0.23l-1.44.84,3.08,5.15s1.43-.83,1.43-0.84h0Z" transform="translate(-1289.75 -8175.09)"/>
</svg>
