<svg xmlns="http://www.w3.org/2000/svg" width="99.937" height="100" viewBox="0 0 99.937 100">
  <defs>
    <style>
    </style>
  </defs>
  <path id="brush" class="cls-1" d="M535.645,2665.39a1.618,1.618,0,0,0,1.014.35,1.684,1.684,0,0,0,1.322-.65,10,10,0,0,0,.205-11.9,1.664,1.664,0,1,0-2.71,1.93,6.684,6.684,0,0,1-.136,7.94A1.657,1.657,0,0,0,535.645,2665.39ZM605,2579c-1.958,0-4.032,1.73-4.347,2.01a493.53,493.53,0,0,0-41.8,36.81,227.028,227.028,0,0,0-19.739,22.15,1.665,1.665,0,1,0,2.648,2.02c1.249-1.63,2.865-3.66,4.857-6.03a13.361,13.361,0,0,1,3.906,2.55,12.532,12.532,0,0,1,2.548,3.94,121.625,121.625,0,0,1-10.383,8.08,0.045,0.045,0,0,1-.035.01c-0.037.02-.057,0.06-0.091,0.08-0.016.01-.052,0.03-0.054,0.03a0.291,0.291,0,0,1-.048.05,2.025,2.025,0,0,0-.633.89,1.7,1.7,0,0,0-.055.5c0,0.03,0,.06,0,0.09a1.6,1.6,0,0,0,.237.77,0.137,0.137,0,0,0,.028.04,13.522,13.522,0,0,1-9.1,19.03c-0.673.15-11.1,1.92-19.179,3.28,1.361-8.08,3.132-18.52,3.283-19.2a13.33,13.33,0,0,1,21.722-7.19,1.666,1.666,0,0,0,2.18-2.52,16.653,16.653,0,0,0-27.153,8.98c-0.236,1.07-3.349,19.58-3.7,21.69a1.668,1.668,0,0,0,1.642,1.94,2.6,2.6,0,0,0,.277-0.02c2.105-.36,20.593-3.47,21.65-3.7a16.775,16.775,0,0,0,13.05-16.28,17.234,17.234,0,0,0-1.191-6.36c3.138-2.2,12.194-8.96,25.686-22.46a492.141,492.141,0,0,0,36.711-41.74c0.346-.39,2.085-2.45,2.085-4.44A5,5,0,0,0,605,2579Zm0.347,7.32a490.44,490.44,0,0,1-36.5,41.5c-5.022,5.03-9.435,9.11-13.148,12.37a15.231,15.231,0,0,0-2.818-4.04,15.824,15.824,0,0,0-4.011-2.81c3.25-3.73,7.314-8.13,12.339-13.16a489.678,489.678,0,0,1,41.559-36.59,5.416,5.416,0,0,1,2.233-1.26,1.671,1.671,0,0,1,1.666,1.67A5.5,5.5,0,0,1,605.35,2586.32Z" transform="translate(-510.063 -2579)"/>
</svg>
