<svg xmlns="http://www.w3.org/2000/svg" width="82.35" height="100" viewBox="0 0 82.35 100">
  <path id="bulb" class="cls-1" d="M1178.38,2028.51l2.69-4.5a2.237,2.237,0,0,1,3.06-.85,2.2,2.2,0,0,1,.87,3.03l-2.7,4.5a2.2,2.2,0,0,1-1.96,1.09,3.312,3.312,0,0,1-1.1-.25A2.16,2.16,0,0,1,1178.38,2028.51Zm-39.67,2.19a2.214,2.214,0,0,0,1.96,1.09,3.312,3.312,0,0,0,1.1-.25,2.184,2.184,0,0,0,.86-3.03l-2.69-4.5a2.234,2.234,0,0,0-3.06-.85,2.2,2.2,0,0,0-.87,3.03Zm21.79-4.12a2.185,2.185,0,0,0,2.2-2.19v-5.21a2.2,2.2,0,0,0-4.4,0v5.21A2.048,2.048,0,0,0,1160.5,2026.58Zm40.89,13.71a2.244,2.244,0,0,0-3.06-.86l-4.54,2.68a2.19,2.19,0,0,0,1.1,4.12,3.562,3.562,0,0,0,1.1-.24l4.54-2.68A2.171,2.171,0,0,0,1201.39,2040.29Zm-12,23.06a29.032,29.032,0,0,1-3.79,14.21,2.093,2.093,0,0,1-.49.85l-0.25.36a25.82,25.82,0,0,1-3.19,4.13c-4.28,5.94-6.48,11.05-6.37,14.32v0.12c0,0.25.13,0.61,0.13,0.97v10.44a8.3,8.3,0,0,1-8.32,8.25h-13.58a8.3,8.3,0,0,1-8.32-8.25v-11.53c0.12-3.16-2.09-8.14-6.12-13.96a24.275,24.275,0,0,1-3.68-4.86c-0.12-.24-0.25-0.36-0.36-0.6a28.41,28.41,0,0,1-3.92-14.32A29.132,29.132,0,0,1,1189.39,2063.35Zm-18.48,36.17h-21.18v4.13h21.18v-4.13h0Zm0,9.48v-0.86h-21.18V2109a3.827,3.827,0,0,0,3.8,3.39h13.59A3.818,3.818,0,0,0,1170.91,2109Zm13.95-45.65a24.61,24.61,0,1,0-45.8,12.39h0v0.12a29.332,29.332,0,0,0,3.31,4.37l0.25,0.25q6.06,8.565,6.99,14.57h21.42c0.74-4.98,4.16-10.68,7.22-14.93a0.531,0.531,0,0,1,.25-0.25,16.261,16.261,0,0,0,2.81-3.76c0-.12.13-0.12,0.13-0.25s0.12-.12.12-0.25A23.652,23.652,0,0,0,1184.86,2063.35Zm-57.65-21.24-4.54-2.68a2.235,2.235,0,0,0-3.06.86,2.184,2.184,0,0,0,.86,3.03l4.54,2.68a1.769,1.769,0,0,0,1.1.25A2.2,2.2,0,0,0,1127.21,2042.11Z" transform="translate(-1119.31 -2017)"/>
</svg>
