<svg xmlns="http://www.w3.org/2000/svg" width="86.5" height="100" viewBox="0 0 86.5 100">
  <path id="brand-icon" class="cls-1" d="M587.059,2058.67H542a1.67,1.67,0,1,0,0,3.33h45.059A1.67,1.67,0,1,0,587.059,2058.67Zm-45.059-10h18.023a1.675,1.675,0,1,0,0-3.34H542A1.675,1.675,0,1,0,542,2048.67ZM587.059,2072H542a1.67,1.67,0,1,0,0,3.33h45.059A1.67,1.67,0,1,0,587.059,2072Zm0,13.33H542a1.675,1.675,0,1,0,0,3.34h45.059A1.675,1.675,0,1,0,587.059,2085.33Zm0,13.34H542a1.67,1.67,0,1,0,0,3.33h45.059A1.67,1.67,0,1,0,587.059,2098.67Zm7.209-57.36V2017h-77.5v91.67h9.012V2117h77.5v-67.36Zm-16.221-10.29,16.221,15,2.859,2.65h-19.08v-17.65Zm-57.676,74.31v-85h70.293v17.65l-13.673-12.65H525.778v80h-5.407Zm9.012,8.34v-85h45.059V2052h25.233v61.67H529.383Z" transform="translate(-516.781 -2017)"/>
</svg>
