<svg xmlns="http://www.w3.org/2000/svg" width="116" height="100" viewBox="0 0 116 100">
  <defs>
    <style>
    </style>
  </defs>
  <path id="coding" class="cls-1" d="M1212.38,2579H1107.62a5.61,5.61,0,0,0-5.62,5.61v65.67a5.619,5.619,0,0,0,5.62,5.62h39.18v12.72h-15.25a5.19,5.19,0,1,0,0,10.38h56.9a5.19,5.19,0,1,0,0-10.38H1173.2V2655.9h39.18a5.619,5.619,0,0,0,5.62-5.62v-65.67A5.61,5.61,0,0,0,1212.38,2579Zm-2.81,68.48h-99.14v-60.06h99.14v60.06Zm-81-26.86,17.72,8.23a3.441,3.441,0,0,0,4.89-3.12v-0.09a3.452,3.452,0,0,0-1.99-3.12l-11.08-5.14,11.08-5.15a3.452,3.452,0,0,0,1.99-3.12v-0.09a3.409,3.409,0,0,0-1.59-2.9,3.452,3.452,0,0,0-1.86-.54,3.4,3.4,0,0,0-1.44.32l-17.72,8.23a3.463,3.463,0,0,0-1.99,3.12v0.25A3.463,3.463,0,0,0,1128.57,2620.62Zm22.77,16.77a3.462,3.462,0,0,0,2.78,1.41h0.09a3.436,3.436,0,0,0,3.28-2.39l11.67-36.14a3.442,3.442,0,0,0-3.28-4.49h-0.09a3.436,3.436,0,0,0-3.28,2.39l-11.67,36.14A3.45,3.45,0,0,0,1151.34,2637.39Zm17.48-28.28a3.452,3.452,0,0,0,1.99,3.12l11.08,5.15-11.08,5.14a3.452,3.452,0,0,0-1.99,3.12v0.09a3.409,3.409,0,0,0,1.59,2.9,3.461,3.461,0,0,0,3.31.22l17.71-8.23a3.463,3.463,0,0,0,1.99-3.12v-0.25a3.463,3.463,0,0,0-1.99-3.12l-17.72-8.23a3.368,3.368,0,0,0-1.44-.32,3.452,3.452,0,0,0-1.86.54,3.409,3.409,0,0,0-1.59,2.9v0.09h0Z" transform="translate(-1102 -2579)"/>
</svg>
