<svg xmlns="http://www.w3.org/2000/svg" width="16" height="16" viewBox="0 0 16 16">
  <path id="linked" class="cls-1" d="M791,6097.81V6104h-3.431v-5.78c0-1.45-.494-2.44-1.736-2.44a1.892,1.892,0,0,0-1.759,1.31,2.644,2.644,0,0,0-.117.88V6104h-3.428s0.046-9.78,0-10.8h3.428v1.53a0.124,0.124,0,0,1-.019.04h0.019v-0.04a3.4,3.4,0,0,1,3.092-1.78C789.31,6092.95,791,6094.49,791,6097.81ZM776.941,6088a1.866,1.866,0,1,0-.044,3.73h0.02A1.866,1.866,0,1,0,776.941,6088Zm-1.736,16h3.428v-10.8h-3.428V6104Z" transform="translate(-775 -6088)"/>
</svg>
