<svg xmlns="http://www.w3.org/2000/svg" width="16" height="16" viewBox="0 0 16 16">
  <defs>
    <style>
      .cls-1 {
        fill: #999;
        fill-rule: evenodd;
      }
    </style>
  </defs>
  <path id="drib" class="cls-1" d="M811,6104a7.742,7.742,0,0,1-3.106-.63,8.344,8.344,0,0,1-2.543-1.72,8.139,8.139,0,0,1-1.718-2.54,7.956,7.956,0,0,1,0-6.22,8.139,8.139,0,0,1,1.718-2.54,8.344,8.344,0,0,1,2.543-1.72,7.972,7.972,0,0,1,6.212,0,8.344,8.344,0,0,1,2.543,1.72,8.139,8.139,0,0,1,1.718,2.54,7.956,7.956,0,0,1,0,6.22,8.139,8.139,0,0,1-1.718,2.54,8.344,8.344,0,0,1-2.543,1.72A7.745,7.745,0,0,1,811,6104Zm6.751-6.91c-0.058-.01-0.215-0.05-0.469-0.12a7.236,7.236,0,0,0-.955-0.18c-0.381-.05-0.818-0.08-1.31-0.1a9.1,9.1,0,0,0-1.535.11q0.329,0.915.572,1.74t0.408,1.47c0.11,0.43.191,0.79,0.243,1.07s0.09,0.49.113,0.59a6.9,6.9,0,0,0,1.917-1.96A6.751,6.751,0,0,0,817.751,6097.09Zm-4.079,5.21c-0.023-.15-0.069-0.39-0.138-0.71s-0.162-.72-0.278-1.17-0.257-.97-0.425-1.53-0.373-1.15-.616-1.78a0.08,0.08,0,0,1-.052.02,10.145,10.145,0,0,0-2.447,1.2,11.1,11.1,0,0,0-1.64,1.36,6.789,6.789,0,0,0-.929,1.13c-0.2.33-.312,0.52-0.347,0.58a7.392,7.392,0,0,0,1.944,1.06A6.883,6.883,0,0,0,813.672,6102.3Zm-7.757-1.72q0.053-.1.434-0.66a10.107,10.107,0,0,1,1.085-1.27,13.484,13.484,0,0,1,1.709-1.43,8.53,8.53,0,0,1,2.343-1.15,0.357,0.357,0,0,1,.13-0.04,0.385,0.385,0,0,0,.13-0.05c-0.092-.19-0.185-0.39-0.277-0.57s-0.186-.38-0.278-0.57a20.611,20.611,0,0,1-2.5.58c-0.81.13-1.536,0.23-2.178,0.28s-1.174.09-1.6,0.1-0.674.01-.755,0.01v0.21a6.59,6.59,0,0,0,.468,2.48A7.172,7.172,0,0,0,805.915,6100.58Zm-1.6-5.97c0.069,0,.289,0,0.659-0.01s0.839-.03,1.406-0.08,1.218-.14,1.952-0.26a21.628,21.628,0,0,0,2.3-.48c-0.289-.5-0.575-0.97-0.859-1.42s-0.54-.86-0.772-1.21-0.428-.65-0.59-0.88-0.266-.38-0.312-0.45A6.786,6.786,0,0,0,804.319,6094.61Zm5.084-5.24c0.047,0.06.154,0.2,0.321,0.43s0.371,0.53.608,0.89,0.5,0.77.781,1.22,0.564,0.94.841,1.45a8.031,8.031,0,0,0,1.562-.74,8.49,8.49,0,0,0,1.094-.77,5.362,5.362,0,0,0,.65-0.62c0.145-.18.235-0.29,0.269-0.33A6.819,6.819,0,0,0,809.4,6089.37Zm6.89,2.33c-0.035.04-.136,0.16-0.3,0.35a7.119,7.119,0,0,1-.711.68,10.136,10.136,0,0,1-1.154.83,10,10,0,0,1-1.649.83c0.081,0.16.159,0.32,0.234,0.49s0.148,0.33.217,0.49q0.034,0.09.078,0.18c0.029,0.06.055,0.11,0.078,0.17a10.464,10.464,0,0,1,1.666-.08c0.544,0.01,1.036.03,1.475,0.07s0.8,0.09,1.094.14,0.462,0.09.52,0.1A6.732,6.732,0,0,0,816.293,6091.7Z" transform="translate(-803 -6088)"/>
</svg>
