<svg xmlns="http://www.w3.org/2000/svg" width="20" height="16" viewBox="0 0 20 16">
  <defs>
    <style>
      .cls-1 {
        fill: #999;
        fill-rule: evenodd;
      }
    </style>
  </defs>
  <path id="tw" class="cls-1" d="M762.448,6088.3a8.6,8.6,0,0,1-2.607.98,4.115,4.115,0,0,0-7.1,2.76,3.993,3.993,0,0,0,.106.92,11.73,11.73,0,0,1-8.457-4.22,3.954,3.954,0,0,0-.554,2.03,4.015,4.015,0,0,0,1.824,3.36,4.038,4.038,0,0,1-1.858-.51v0.05a4.074,4.074,0,0,0,3.291,3.97,4.265,4.265,0,0,1-1.081.14,4.9,4.9,0,0,1-.773-0.07,4.1,4.1,0,0,0,3.832,2.8,8.335,8.335,0,0,1-5.095,1.73,7.906,7.906,0,0,1-.979-0.06,11.716,11.716,0,0,0,6.29,1.82,11.5,11.5,0,0,0,11.673-11.5l-0.014-.52a8.213,8.213,0,0,0,2.051-2.09,8.428,8.428,0,0,1-2.356.64A4.068,4.068,0,0,0,762.448,6088.3Z" transform="translate(-743 -6088)"/>
</svg>
