<svg xmlns="http://www.w3.org/2000/svg" width="38.97" height="24" viewBox="0 0 38.97 24">
  <defs>
    <style>
      .cls-1 {
        fill: #999;
        fill-rule: evenodd;
      }
    </style>
  </defs>
  <path id="be" class="cls-1" d="M1284.2,7718.4h-9.76V7716h9.77v2.4h-0.01Zm-16.27,9.84a6.317,6.317,0,0,1,.95,3.52,6.983,6.983,0,0,1-1.08,3.83,6.84,6.84,0,0,1-1.71,1.88,6.762,6.762,0,0,1-2.74,1.21,17.614,17.614,0,0,1-3.43.32H1249v-24h11.71c2.96,0.05,5.05.89,6.29,2.56a6.064,6.064,0,0,1,1.11,3.66,5.285,5.285,0,0,1-1.13,3.53,5.655,5.655,0,0,1-1.84,1.37A5.367,5.367,0,0,1,1267.93,7728.24Zm-13.34-3.78h5.14a4.974,4.974,0,0,0,2.56-.59,2.255,2.255,0,0,0,.98-2.11,2.151,2.151,0,0,0-1.3-2.22,9.194,9.194,0,0,0-2.86-.37h-4.52v5.29Zm9.18,6.95a2.582,2.582,0,0,0-1.54-2.57,6.071,6.071,0,0,0-2.43-.4h-5.21v6.39h5.13a5.855,5.855,0,0,0,2.46-.42A3.018,3.018,0,0,0,1263.77,7731.41Zm24.06-3.9a22.194,22.194,0,0,1,.15,3.41h-12.65a4.1,4.1,0,0,0,1.81,3.63,4.66,4.66,0,0,0,2.51.64,3.853,3.853,0,0,0,2.52-.78,3.926,3.926,0,0,0,.93-1.18h4.64a5.553,5.553,0,0,1-1.68,3.1,8.478,8.478,0,0,1-6.54,2.51,9.54,9.54,0,0,1-6.12-2.11c-1.76-1.42-2.65-3.71-2.65-6.89q0-4.47,2.39-6.85a8.443,8.443,0,0,1,6.22-2.39,9.906,9.906,0,0,1,4.08.81,6.987,6.987,0,0,1,3,2.54A8.468,8.468,0,0,1,1287.83,7727.51Zm-4.57.45a3.7,3.7,0,0,0-1.21-2.72,3.983,3.983,0,0,0-2.69-.93,3.6,3.6,0,0,0-2.71.99,4.521,4.521,0,0,0-1.21,2.66h7.82Z" transform="translate(-1249 -7715)"/>
</svg>
